<svg width="64" height="64" viewBox="0 0 64 64" fill="none" xmlns="http://www.w3.org/2000/svg">
  <defs>
    <linearGradient id="nixos-gradient" x1="0%" y1="0%" x2="100%" y2="100%">
      <stop offset="0%" style="stop-color:#5277C3;stop-opacity:1" />
      <stop offset="100%" style="stop-color:#7EBAE4;stop-opacity:1" />
    </linearGradient>
  </defs>
  
  <!-- NixOS snowflake logo simplified -->
  <g transform="translate(32,32)">
    <!-- Center hexagon -->
    <polygon points="-6,-10 6,-10 12,0 6,10 -6,10 -12,0" fill="url(#nixos-gradient)" opacity="0.9"/>
    
    <!-- Six rays extending outward -->
    <g stroke="url(#nixos-gradient)" stroke-width="3" stroke-linecap="round">
      <!-- Top -->
      <line x1="0" y1="-10" x2="0" y2="-20"/>
      <line x1="-3" y1="-17" x2="3" y2="-17"/>
      
      <!-- Top right -->
      <line x1="8.7" y1="-5" x2="17.3" y2="-10"/>
      <line x1="14.5" y1="-4.5" x2="11.5" y2="-10.5"/>
      
      <!-- Bottom right -->
      <line x1="8.7" y1="5" x2="17.3" y2="10"/>
      <line x1="14.5" y1="4.5" x2="11.5" y2="10.5"/>
      
      <!-- Bottom -->
      <line x1="0" y1="10" x2="0" y2="20"/>
      <line x1="-3" y1="17" x2="3" y2="17"/>
      
      <!-- Bottom left -->
      <line x1="-8.7" y1="5" x2="-17.3" y2="10"/>
      <line x1="-14.5" y1="4.5" x2="-11.5" y2="10.5"/>
      
      <!-- Top left -->
      <line x1="-8.7" y1="-5" x2="-17.3" y2="-10"/>
      <line x1="-14.5" y1="-4.5" x2="-11.5" y2="-10.5"/>
    </g>
  </g>
</svg>